<svg width="40" height="50" viewBox="0 0 40 50" fill="none" xmlns="http://www.w3.org/2000/svg">
<path d="M30.9375 0H9.0525C8.4925 0 5.555 0.1625 2.795 3.3775C0.0775 6.54 0 9.655 0 10V37.5C0 38.8261 0.526784 40.0979 1.46447 41.0355C2.40215 41.9732 3.67392 42.5 5 42.5H7.5L2.5 50H8.3825L10.05 47.5H30.05L31.7425 50H37.5L32.5 42.5H35C36.3261 42.5 37.5979 41.9732 38.5355 41.0355C39.4732 40.0979 40 38.8261 40 37.5V10C40.0025 9.53 39.92 6.415 37.1775 3.3375C34.2875 0.0925002 31.2725 0 30.9375 0ZM15 5H25V10H15V5ZM8.75 37.5C7.75511 37.4997 6.80109 37.1041 6.09783 36.4004C5.39457 35.6967 4.99967 34.7424 5 33.7475C5.00033 32.7526 5.39587 31.7986 6.0996 31.0953C6.80333 30.3921 7.75761 29.9972 8.7525 29.9975C9.74739 29.9978 10.7014 30.3934 11.4047 31.0971C12.1079 31.8008 12.5028 32.7551 12.5025 33.75C12.5022 34.7449 12.1066 35.6989 11.4029 36.4022C10.6992 37.1054 9.74489 37.5003 8.75 37.5ZM31.25 37.5C30.2551 37.4997 29.3011 37.1041 28.5978 36.4004C27.8946 35.6967 27.4997 34.7424 27.5 33.7475C27.5003 32.7526 27.8959 31.7986 28.5996 31.0953C29.3033 30.3921 30.2576 29.9972 31.2525 29.9975C32.2474 29.9978 33.2014 30.3934 33.9047 31.0971C34.6079 31.8008 35.0028 32.7551 35.0025 33.75C35.0022 34.7449 34.6066 35.6989 33.9029 36.4022C33.1992 37.1054 32.2449 37.5003 31.25 37.5ZM35 25H5V15H35V25Z" fill="#373737"/>
</svg>
