<svg width="59" height="50" viewBox="0 0 59 50" fill="none" xmlns="http://www.w3.org/2000/svg">
<path d="M59 50C57.7481 49.9997 56.5108 49.6782 55.3715 49.0574C54.1969 48.419 52.9225 48.0861 51.6324 48.0809C50.3396 48.087 49.0625 48.4197 47.8846 49.0574C46.7455 49.6779 45.5084 49.9989 44.2568 49.9989C43.0051 49.9989 41.768 49.6779 40.6289 49.0574C39.4505 48.4232 38.1744 48.0906 36.8824 48.0809C35.5897 48.0881 34.3128 48.4208 33.1346 49.0574C31.9933 49.6778 30.7542 49.9988 29.5006 49.9988C28.247 49.9988 27.0079 49.6778 25.8666 49.0574C24.6941 48.4208 23.4224 48.088 22.1348 48.0809C20.8425 48.088 19.566 48.4208 18.3883 49.0574C17.2473 49.6781 16.0084 49.9993 14.7549 49.9993C13.5015 49.9993 12.2625 49.6781 11.1215 49.0574C9.94416 48.4195 8.6674 48.0868 7.375 48.0809C6.08721 48.0897 4.81537 48.4223 3.64202 49.0574C2.49764 49.6771 1.25615 49.9984 0 50V43.5353C1.25424 43.5268 2.49373 43.211 3.64202 42.6074C4.81221 41.9593 6.08555 41.6212 7.375 41.6162C8.70987 41.6162 9.98944 41.9838 11.1215 42.6074C12.2633 43.211 13.4968 43.5268 14.7451 43.5353C15.9999 43.5291 17.2402 43.2132 18.3883 42.6074C19.5628 41.9576 20.8409 41.6195 22.1348 41.6162C23.4599 41.6162 24.7333 41.9838 25.8666 42.6074C27.0134 43.2116 28.2518 43.5275 29.5049 43.5353C30.7552 43.5275 31.9908 43.2116 33.1346 42.6074C34.3096 41.9578 35.588 41.6197 36.8824 41.6162C38.2013 41.6162 39.4796 41.9838 40.6289 42.6074C41.729 43.1853 42.9643 43.5353 44.2549 43.5353C45.5054 43.5287 46.7412 43.2128 47.8846 42.6074C49.0593 41.9567 50.3379 41.6185 51.6324 41.6162C52.9672 41.6162 54.2444 41.9838 55.3715 42.6074C56.5146 43.2125 57.75 43.5284 59 43.5353V50V50ZM50.4548 31.7118C54.3292 31.7118 57.4734 27.9618 57.4734 23.3618C57.4734 18.7574 54.3292 15.0265 50.4548 15.0265C46.5744 15.0265 43.4338 18.7588 43.4338 23.3618C43.4338 27.9618 46.2953 31.7118 50.4548 31.7118ZM9.57644 36.4059C10.121 36.5603 10.6347 36.7853 11.1227 37.0471C12.2624 37.6618 13.4974 37.9829 14.7475 37.9897C16.0382 37.9897 17.2907 37.6397 18.3896 37.0471C19.5658 36.4034 20.8426 36.0646 22.1361 36.0529C23.4611 36.0529 24.737 36.4382 25.8678 37.0471C27.0121 37.6624 28.2516 37.9835 29.5061 37.9897C30.7845 37.9897 32.0358 37.6397 33.1346 37.0471C34.3114 36.4035 35.5885 36.0647 36.8824 36.0529C38.2025 36.0529 39.4821 36.4382 40.6289 37.0471C41.7302 37.6382 42.9643 37.9897 44.2574 37.9897C45.1977 37.9897 46.1036 37.8 46.9579 37.4809L35.25 12.3985L48.868 9.44706C50.8666 8.99412 52.317 7.12941 52.317 4.74265C52.317 2.11029 50.5138 0 48.3075 0L47.8527 0.0161767L26.8167 4.56323C25.3405 4.96471 23.3849 7.53235 24.4985 10.6824L24.678 11.1897L30.1674 22.9588L9.57644 36.4059V36.4059Z" fill="#373737"/>
</svg>
