<svg width="40" height="51" viewBox="0 0 40 51" fill="none" xmlns="http://www.w3.org/2000/svg">
<path d="M20.0938 0.4375C14.9239 0.443599 9.96755 2.50001 6.31192 6.15565C2.65628 9.81128 0.59987 14.7676 0.593771 19.9375C0.587579 24.1623 1.9676 28.2724 4.52213 31.6375C4.52213 31.6375 5.05395 32.3377 5.14081 32.4387L20.0938 50.0738L35.0538 32.4299C35.1318 32.3359 35.6654 31.6375 35.6654 31.6375L35.6671 31.6322C38.2204 28.2686 39.5998 24.1603 39.5937 19.9375C39.5876 14.7676 37.5312 9.81128 33.8756 6.15565C30.2199 2.50001 25.2636 0.443599 20.0938 0.4375V0.4375ZM20.0938 27.0284C18.6913 27.0284 17.3203 26.6125 16.1543 25.8333C14.9882 25.0542 14.0793 23.9467 13.5426 22.6511C13.0059 21.3554 12.8655 19.9296 13.1391 18.5541C13.4127 17.1786 14.088 15.9151 15.0797 14.9235C16.0714 13.9318 17.3349 13.2564 18.7104 12.9828C20.0859 12.7092 21.5116 12.8496 22.8073 13.3863C24.103 13.923 25.2105 14.8319 25.9896 15.998C26.7688 17.1641 27.1847 18.535 27.1847 19.9375C27.1823 21.8174 26.4345 23.6196 25.1052 24.9489C23.7759 26.2782 21.9737 27.026 20.0938 27.0284V27.0284Z" fill="#373737"/>
</svg>
