<svg width="65" height="50" viewBox="0 0 65 50" fill="none" xmlns="http://www.w3.org/2000/svg">
<path d="M17.4517 31.9305C15.7946 32.3997 14.0308 32.6033 12.2681 32.5292C10.5054 32.455 8.78085 32.1044 7.20004 31.499C5.61923 30.8936 4.21538 30.0461 3.07441 29.0083C1.93344 27.9705 1.07933 26.7642 0.564366 25.4633C0.0493975 24.1624 -0.115605 22.7942 0.0794562 21.4425C0.274517 20.0908 0.825539 18.7839 1.6988 17.6019C2.57207 16.4199 3.7492 15.3876 5.15818 14.5682C6.56716 13.7488 8.17835 13.1595 9.89315 12.8364V12.5115C9.891 10.8252 10.4426 9.16586 11.4965 7.68791C12.5505 6.20996 14.0726 4.96144 15.9213 4.05852C17.7699 3.1556 19.885 2.62762 22.0697 2.52373C24.2543 2.41983 26.4376 2.74339 28.4164 3.46429C29.7766 2.08131 31.6401 1.04127 33.7697 0.476426C35.8993 -0.0884169 38.1988 -0.152536 40.3759 0.292224C42.5529 0.736984 44.5091 1.67052 45.9955 2.97412C47.482 4.27772 48.4317 5.89247 48.7238 7.61301C50.3699 7.85668 51.8777 8.48736 53.0395 9.41827C54.2014 10.3492 54.9602 11.5346 55.2118 12.8114C56.9671 13.1541 58.6099 13.7761 60.0345 14.6374C61.4591 15.4986 62.634 16.5801 63.4835 17.8121C64.333 19.0442 64.8384 20.3996 64.9672 21.7912C65.0959 23.1828 64.8452 24.5797 64.2311 25.8921C63.617 27.2046 62.6531 28.4035 61.4015 29.4117C60.1499 30.4199 58.6382 31.2151 56.9637 31.7462C55.2892 32.2773 53.4889 32.5325 51.6787 32.4954C49.8685 32.4583 48.0884 32.1296 46.453 31.5307C44.7086 33.7127 42.1388 35.4309 39.0891 36.4542V45.0015L45.5771 47.5008V50H19.6251V47.5008L26.1131 45.0015V37.5038L17.4517 31.9305ZM16.3811 25.0077L26.1131 32.5054V25.0077H16.3811Z" fill="#373737"/>
</svg>
